<svg width="175" height="167" viewBox="0 0 175 167" fill="none" xmlns="http://www.w3.org/2000/svg">
<g clip-path="url(#clip0_36826:22746)">
<path d="M61.377 162.708L65.3451 162.707L67.2326 147.372L61.3765 147.372L61.377 162.708Z" fill="#FFB6B6"/>
<path d="M60.3652 161.409L61.4821 161.409L65.8425 159.632L68.1796 161.408H68.1799C69.5006 161.408 70.7672 161.934 71.7011 162.87C72.635 163.806 73.1597 165.075 73.1598 166.398V166.56L60.3655 166.561L60.3652 161.409Z" fill="#2F2E41"/>
<path d="M76.7539 160.202L80.6243 161.077L85.837 146.536L80.1246 145.243L76.7539 160.202Z" fill="#FFB6B6"/>
<path d="M76.0518 158.712L77.1413 158.958L81.7852 158.188L83.6743 160.436L83.6746 160.436C84.9629 160.728 86.0828 161.52 86.788 162.639C87.4933 163.758 87.7261 165.112 87.4353 166.403L87.3996 166.561L74.9194 163.737L76.0518 158.712Z" fill="#2F2E41"/>
<path d="M56.3516 68.9551C54.4912 74.577 54.6879 80.6795 56.7987 87.2291L57.7011 124.105C57.7011 124.105 56.3567 148.288 60.6949 156.797H66.9865L70.1016 121.897L70.4928 98.4712L83.9815 118.234L75.3901 156.227L83.1337 156.92L97.0751 115.69L79.8742 75.6891L56.3516 68.9551Z" fill="#2F2E41"/>
<path d="M128.908 52.9415C133.721 48.5964 140.879 46.4116 146.883 48.848C140.724 52.2743 135.973 57.773 133.471 64.3712C132.515 66.9194 131.716 69.8532 129.365 71.2175C127.902 72.0663 126.082 72.1078 124.442 71.6981C122.802 71.2882 121.298 70.4667 119.815 69.6535L119.394 69.6439C121.288 63.4367 124.096 57.2867 128.908 52.9415Z" fill="#E6E6E6"/>
<path d="M146.85 48.9799C141.532 49.6684 136.566 52.0184 132.657 55.6959C131.801 56.4726 131.073 57.3796 130.5 58.3834C129.972 59.3794 129.721 60.4987 129.771 61.625C129.797 62.6761 129.945 63.7483 129.716 64.7874C129.591 65.3176 129.355 65.8152 129.024 66.2477C128.693 66.6801 128.275 67.0376 127.797 67.2968C126.622 67.9736 125.274 68.1869 123.949 68.3496C122.478 68.5303 120.946 68.6947 119.673 69.5216C119.518 69.6218 119.372 69.376 119.526 69.2759C121.742 67.8373 124.546 68.3608 126.929 67.4006C128.041 66.9526 129.024 66.1661 129.373 64.9771C129.677 63.9373 129.525 62.8316 129.49 61.7675C129.425 60.6695 129.629 59.5722 130.084 58.5714C130.605 57.5415 131.297 56.6079 132.13 55.8106C133.978 53.9857 136.101 52.4632 138.42 51.2989C141.06 49.9554 143.91 49.0743 146.847 48.6938C147.029 48.6703 147.03 48.9565 146.85 48.9799H146.85Z" fill="white"/>
<path d="M133.846 54.4373C133.319 53.6964 133.072 52.792 133.15 51.8856C133.227 50.9793 133.623 50.1299 134.268 49.4893C134.399 49.3602 134.605 49.5579 134.474 49.6872C133.873 50.2826 133.504 51.0738 133.433 51.918C133.363 52.7621 133.596 53.6036 134.091 54.2906C134.198 54.44 133.953 54.5858 133.846 54.4373V54.4373Z" fill="white"/>
<path d="M129.688 61.0946C131.516 61.419 133.398 61.0414 134.96 60.037C135.114 59.9374 135.261 60.1831 135.106 60.2826C133.479 61.3248 131.519 61.7138 129.618 61.372C129.437 61.3393 129.508 61.0621 129.688 61.0946V61.0946Z" fill="white"/>
<path d="M141.083 50.3341C141.228 50.6633 141.451 50.9515 141.734 51.1727C142.017 51.394 142.35 51.5414 142.704 51.6017C142.885 51.6321 142.814 51.9093 142.634 51.8791C142.243 51.8107 141.876 51.6474 141.563 51.4037C141.25 51.1599 141.001 50.843 140.838 50.4807C140.82 50.4479 140.815 50.4093 140.824 50.3729C140.833 50.3365 140.856 50.3049 140.888 50.2846C140.92 50.2654 140.959 50.2597 140.996 50.269C141.032 50.2783 141.064 50.3017 141.083 50.3341Z" fill="white"/>
<path d="M153.494 69.8026C153.381 69.7869 153.267 69.7712 153.151 69.7572C151.619 69.5535 150.073 69.4748 148.529 69.5219C148.409 69.5236 148.288 69.5272 148.169 69.5324C144.449 69.6857 140.79 70.5296 137.377 72.0214C136.02 72.6163 134.709 73.3138 133.458 74.1078C131.729 75.2045 129.942 76.5314 128.009 76.9787C127.808 77.0276 127.604 77.064 127.399 77.0877L119.414 70.1606C119.404 70.1358 119.392 70.1126 119.382 70.0877L119.05 69.8257C119.112 69.7802 119.177 69.7344 119.239 69.6889C119.274 69.6624 119.312 69.6374 119.347 69.6109C119.372 69.5937 119.396 69.5766 119.417 69.5597C119.425 69.5539 119.434 69.5482 119.44 69.5443C119.461 69.5274 119.482 69.5139 119.502 69.4988C119.864 69.2416 120.229 68.9866 120.597 68.7336C120.598 68.7318 120.598 68.7318 120.601 68.7315C123.382 66.777 126.385 65.16 129.545 63.9142C129.64 63.8783 129.737 63.8405 129.835 63.8078C131.259 63.2774 132.723 62.8646 134.214 62.5733C135.03 62.4164 135.855 62.3011 136.683 62.2277C138.824 62.0422 140.98 62.1953 143.074 62.6813C147.247 63.6509 151.064 65.9468 153.324 69.5274C153.382 69.619 153.438 69.7092 153.494 69.8026Z" fill="#E6E6E6"/>
<path d="M153.389 69.8887C148.729 67.2305 143.352 66.111 138.021 66.6892C136.871 66.7933 135.745 67.0783 134.684 67.5338C133.664 68.0109 132.791 68.7529 132.155 69.6826C131.544 70.5376 131.018 71.4829 130.21 72.1742C129.792 72.5219 129.304 72.777 128.78 72.9228C128.256 73.0685 127.708 73.1017 127.17 73.02C125.825 72.8515 124.621 72.2089 123.465 71.5394C122.182 70.7961 120.86 70.0037 119.347 69.8956C119.163 69.8825 119.194 69.5981 119.377 69.6112C122.011 69.7992 123.935 71.9087 126.415 72.5794C127.572 72.8924 128.83 72.8579 129.822 72.1186C130.69 71.4721 131.233 70.4977 131.844 69.6267C132.452 68.7106 133.274 67.9575 134.239 67.4332C135.274 66.9251 136.387 66.5971 137.532 66.4632C140.104 66.1208 142.713 66.1856 145.265 66.6553C148.18 67.1752 150.985 68.191 153.559 69.6587C153.718 69.7496 153.547 69.9791 153.389 69.8888L153.389 69.8887Z" fill="white"/>
<path d="M139.727 66.4017C139.751 65.4923 140.098 64.6214 140.704 63.9443C141.31 63.2673 142.137 62.8282 143.037 62.7056C143.219 62.6814 143.265 62.9638 143.082 62.988C142.245 63.1007 141.474 63.5097 140.911 64.1413C140.348 64.773 140.028 65.5856 140.01 66.4324C140.006 66.6165 139.723 66.5846 139.727 66.4017Z" fill="white"/>
<path d="M132.407 69.208C133.671 70.5694 135.401 71.4034 137.252 71.5437C137.435 71.5574 137.404 71.8418 137.221 71.8281C135.296 71.6785 133.497 70.807 132.185 69.3873C132.06 69.2519 132.283 69.0733 132.407 69.208Z" fill="white"/>
<path d="M147.971 67.491C147.888 67.8409 147.894 68.2058 147.987 68.5531C148.08 68.9004 148.257 69.2191 148.503 69.4807C148.63 69.6144 148.407 69.7929 148.281 69.66C148.01 69.3698 147.815 69.0175 147.711 68.6341C147.608 68.2506 147.599 67.8476 147.687 67.4602C147.693 67.423 147.712 67.3892 147.741 67.3657C147.77 67.3421 147.807 67.3306 147.845 67.3334C147.882 67.3377 147.917 67.3567 147.94 67.3862C147.964 67.4157 147.975 67.4534 147.971 67.491Z" fill="white"/>
<path d="M13.2536 162.428C12.8788 163.837 11.8939 165.01 10.7049 165.865C10.511 166.005 10.312 166.134 10.1104 166.256C10.0483 166.292 9.98629 166.331 9.92167 166.365C9.85188 166.406 9.78208 166.445 9.71229 166.481H4.12116C4.02035 166.276 3.92212 166.069 3.8239 165.865C1.42769 160.819 -0.255074 155.375 0.0318501 149.83C0.145683 147.679 0.596665 145.56 1.36824 143.549C2.90367 139.542 5.7057 136.074 9.55978 134.329C9.65543 134.285 9.75624 134.241 9.85446 134.199C9.82344 134.311 9.79243 134.419 9.76141 134.531C9.34793 136.023 9.05574 137.547 8.88771 139.087C8.8722 139.206 8.85928 139.325 8.84894 139.447C8.48171 143.16 8.8078 146.909 9.81052 150.503C9.8131 150.511 9.81568 150.521 9.81827 150.529C10.038 151.324 10.293 152.107 10.5834 152.878C10.8109 153.487 11.0564 154.088 11.3253 154.678C12.4471 157.157 13.9515 159.799 13.2536 162.428Z" fill="#E6E6E6"/>
<path d="M9.92429 134.317C9.87001 134.389 9.81571 134.459 9.76144 134.532C8.62611 136.039 7.66202 137.669 6.88704 139.391C6.84568 139.476 6.80691 139.562 6.7733 139.65C5.71142 142.054 5.02946 144.609 4.75191 147.223C4.74891 147.241 4.74718 147.259 4.74674 147.277C4.68212 147.889 4.64335 148.505 4.62784 149.121C4.57036 150.277 4.6951 151.434 4.99747 152.551C5.27318 153.462 5.75631 154.297 6.40883 154.99C6.47345 155.06 6.53808 155.13 6.60787 155.198C6.65957 155.252 6.71643 155.306 6.77071 155.358C7.29286 155.858 7.86413 156.322 8.35526 156.858C8.58037 157.098 8.78366 157.358 8.96271 157.635C9.24848 158.098 9.43307 158.617 9.50435 159.157C9.57564 159.697 9.53199 160.247 9.37629 160.769C9.02475 162.079 8.22084 163.185 7.39885 164.239C6.98785 164.768 6.56392 165.301 6.19687 165.866C6.06247 166.068 5.93838 166.272 5.82466 166.482H5.49896C5.60753 166.272 5.72643 166.068 5.85568 165.866C6.79917 164.377 8.14073 163.097 8.83607 161.458C9.30652 160.352 9.44869 159.098 8.85416 158.013C8.67992 157.697 8.46908 157.403 8.22603 157.137C7.75299 156.601 7.1869 156.143 6.67251 155.659C6.54326 155.537 6.4166 155.413 6.29511 155.283C5.65101 154.627 5.15398 153.841 4.83723 152.978C4.47852 151.881 4.30893 150.731 4.33576 149.577C4.33576 148.842 4.37453 148.101 4.44691 147.365C4.45466 147.272 4.465 147.176 4.47534 147.08C5.00397 142.452 6.75956 138.049 9.55984 134.33C9.61154 134.257 9.66582 134.187 9.7201 134.117C9.83124 133.972 10.0354 134.174 9.92429 134.317Z" fill="white"/>
<path d="M4.5797 147.389C3.68437 147.238 2.87164 146.774 2.28667 146.078C1.70169 145.382 1.38256 144.501 1.38626 143.591C1.38676 143.554 1.4016 143.519 1.42767 143.493C1.45374 143.466 1.48899 143.451 1.52601 143.45C1.56302 143.449 1.5989 143.463 1.6261 143.488C1.65329 143.513 1.66967 143.548 1.67178 143.585C1.66677 144.432 1.96413 145.253 2.51017 145.9C3.05622 146.547 3.81499 146.976 4.64954 147.112C4.83086 147.141 4.75998 147.419 4.5797 147.389V147.389Z" fill="white"/>
<path d="M6.33719 155.042C7.8583 153.976 8.92279 152.376 9.31839 150.559C9.35744 150.379 9.63423 150.449 9.59523 150.629C9.18004 152.519 8.0689 154.182 6.48356 155.287C6.33238 155.393 6.18684 155.146 6.3372 155.042L6.33719 155.042Z" fill="white"/>
<path d="M6.80175 139.36C7.13605 139.491 7.49749 139.536 7.85362 139.492C8.20975 139.448 8.54942 139.316 8.84212 139.108C8.99189 139.001 9.13728 139.248 8.98849 139.354C8.66403 139.582 8.28872 139.727 7.89536 139.777C7.50199 139.826 7.10254 139.778 6.7319 139.637C6.69585 139.627 6.66509 139.603 6.64586 139.571C6.62664 139.539 6.6204 139.5 6.6284 139.464C6.63783 139.427 6.66134 139.396 6.69379 139.376C6.72625 139.357 6.76505 139.351 6.80175 139.36Z" fill="white"/>
<path d="M29.316 144.333C29.2256 144.403 29.1325 144.473 29.042 144.545C27.8148 145.486 26.6659 146.526 25.6067 147.653C25.524 147.739 25.4413 147.827 25.3611 147.915L25.3586 147.917C22.8471 150.649 20.8612 153.823 19.5012 157.278L19.4934 157.301C19.4908 157.309 19.4883 157.314 19.4857 157.322C18.9466 158.705 18.512 160.126 18.1855 161.574C17.8701 162.989 17.6116 164.504 17.1179 165.866C17.0429 166.076 16.9602 166.283 16.8723 166.483H5.37988C5.41866 166.278 5.46001 166.071 5.50137 165.866C6.08599 162.865 6.99969 159.938 8.22585 157.138C8.26721 157.045 8.30857 156.951 8.3551 156.858C8.9881 155.475 9.73242 154.145 10.5807 152.882C10.5807 152.882 10.5808 152.882 10.5809 152.881C10.581 152.881 10.5812 152.881 10.5814 152.881C10.5817 152.88 10.582 152.88 10.5823 152.88C10.5826 152.88 10.5829 152.88 10.5833 152.88C11.0491 152.191 11.5495 151.526 12.0825 150.888C13.465 149.24 15.098 147.821 16.9215 146.682C16.9318 146.674 16.9447 146.669 16.9551 146.661C20.5843 144.405 24.8855 143.331 28.9981 144.26H29.0007C29.1067 144.284 29.2101 144.307 29.316 144.333Z" fill="#E6E6E6"/>
<path d="M29.3032 144.47C29.2153 144.493 29.1274 144.519 29.0421 144.545C27.2305 145.064 25.4819 145.782 23.8284 146.687C23.7456 146.731 23.6629 146.777 23.5802 146.824C21.295 148.102 19.2207 149.726 17.4307 151.639C17.4293 151.64 17.4284 151.642 17.4281 151.644C17.4075 151.665 17.3842 151.688 17.3661 151.709C16.9525 152.154 16.5544 152.618 16.1771 153.094C15.4388 153.983 14.844 154.982 14.4142 156.055C14.0857 156.949 13.9697 157.908 14.0755 158.855C14.0833 158.95 14.0962 159.044 14.1091 159.14C14.1195 159.215 14.1298 159.29 14.1427 159.367C14.3133 160.406 14.608 161.447 14.5253 162.507C14.475 163.049 14.3105 163.575 14.0428 164.05C13.775 164.524 13.41 164.937 12.9718 165.26C12.6739 165.491 12.3555 165.693 12.0205 165.866C11.5417 166.113 11.0427 166.319 10.5291 166.482H9.51318C9.65018 166.443 9.7846 166.405 9.9216 166.366C10.4078 166.228 10.8851 166.061 11.351 165.866C11.6172 165.754 11.8762 165.626 12.1265 165.483C13.1656 164.884 14.0316 163.967 14.2125 162.742C14.3702 161.67 14.0652 160.598 13.8842 159.549C13.8532 159.367 13.8248 159.189 13.8093 159.01C13.6859 158.102 13.7608 157.177 14.029 156.301C14.4009 155.208 14.957 154.186 15.673 153.281C16.1159 152.692 16.5887 152.125 17.0895 151.585C17.1516 151.515 17.2162 151.445 17.2834 151.375C19.1111 149.448 21.2213 147.812 23.5414 146.524H23.544C25.2691 145.561 27.0993 144.802 28.9981 144.26H29.0007C29.086 144.234 29.1739 144.208 29.2592 144.185C29.4376 144.138 29.4789 144.421 29.3032 144.47Z" fill="white"/>
<path d="M17.181 151.682C16.5567 151.022 16.187 150.16 16.1379 149.252C16.0889 148.344 16.3636 147.448 16.9132 146.723C17.0249 146.577 17.2568 146.744 17.1449 146.891C16.6319 147.564 16.3761 148.399 16.4235 149.245C16.4709 150.09 16.8185 150.891 17.4035 151.503C17.5304 151.636 17.3073 151.814 17.181 151.682H17.181Z" fill="white"/>
<path d="M13.986 158.853C15.8406 158.92 17.6524 158.285 19.0599 157.073C19.1993 156.952 19.3781 157.175 19.2389 157.295C17.7718 158.554 15.8851 159.212 13.9552 159.138C13.7713 159.131 13.803 158.846 13.986 158.853Z" fill="white"/>
<path d="M23.78 146.611C23.9684 146.917 24.2297 147.171 24.5405 147.351C24.8512 147.53 25.2017 147.63 25.5603 147.641C25.7443 147.645 25.7123 147.93 25.5296 147.925C25.1334 147.912 24.7465 147.801 24.4027 147.603C24.059 147.405 23.7688 147.126 23.5575 146.79C23.535 146.76 23.5247 146.723 23.5287 146.685C23.5327 146.648 23.5508 146.613 23.5793 146.589C23.6088 146.565 23.6465 146.554 23.6841 146.558C23.7217 146.563 23.7561 146.581 23.78 146.611Z" fill="white"/>
<path d="M117.97 44.8407C117.705 45.1903 117.366 45.4774 116.978 45.6818C116.59 45.8861 116.162 46.0028 115.724 46.0234C115.286 46.0441 114.849 45.9684 114.444 45.8015C114.038 45.6346 113.674 45.3807 113.377 45.0576L103.606 49.3156L104.558 43.8503L113.691 40.6447C114.266 40.1809 114.99 39.9444 115.727 39.9801C116.465 40.0158 117.163 40.3212 117.691 40.8384C118.218 41.3556 118.538 42.0487 118.589 42.7863C118.641 43.524 118.42 44.2549 117.97 44.8407Z" fill="#FFB8B8"/>
<path d="M111.45 46.5474L88.7552 56.6765L88.7065 56.659L62.8402 47.4233C60.9135 46.4144 59.4446 44.7057 58.7342 42.647C58.0239 40.5883 58.1259 38.3354 59.0193 36.3496C59.5144 35.2524 60.2359 34.2728 61.1363 33.4751C62.0366 32.6775 63.0953 32.0799 64.2427 31.7218C65.3901 31.3637 66.6002 31.2531 67.7933 31.3973C68.9864 31.5416 70.1355 31.9374 71.165 32.5587L90.4143 44.1773L109.08 41.7533L111.45 46.5474Z" fill="#E6E6E6"/>
<path d="M223 166.692C223 166.733 222.992 166.773 222.977 166.81C222.962 166.848 222.939 166.882 222.91 166.91C222.882 166.939 222.848 166.962 222.81 166.977C222.773 166.992 222.733 167 222.693 167H0.316389C0.234807 167 0.15657 166.968 0.0988834 166.91C0.0411967 166.852 0.00878906 166.774 0.00878906 166.692C0.00878906 166.61 0.0411967 166.532 0.0988834 166.474C0.15657 166.416 0.234807 166.384 0.316389 166.384H222.693C222.733 166.384 222.773 166.392 222.81 166.407C222.848 166.422 222.882 166.445 222.91 166.474C222.939 166.502 222.962 166.536 222.977 166.574C222.992 166.611 223 166.651 223 166.692Z" fill="#CCCCCC"/>
<path d="M80.9961 76.8699L58.1183 73.2033C57.5183 73.0108 56.9669 72.6904 56.5022 72.2642C56.0374 71.838 55.6701 71.3161 55.4257 70.7342C55.1812 70.1524 55.0652 69.5245 55.0858 68.8935C55.1064 68.2626 55.263 67.6436 55.5449 67.079L56.5824 64.9996L56.1794 43.1538C56.1308 40.3122 56.8299 37.5078 58.2065 35.0229C59.5831 32.538 61.5885 30.4602 64.021 28.9984L66.252 27.6618L67.3795 24.793L77.776 25.047L77.8063 28.8096L81.5295 34.7584L81.5294 34.7831L81.2958 67.1617L80.2696 70.5032L81.8212 74.3897L80.9961 76.8699Z" fill="#E6E6E6"/>
<path d="M73.5298 21.2268C78.7468 21.2268 82.9761 16.9892 82.9761 11.7618C82.9761 6.53448 78.7468 2.29688 73.5298 2.29688C68.3127 2.29688 64.0835 6.53448 64.0835 11.7618C64.0835 16.9892 68.3127 21.2268 73.5298 21.2268Z" fill="#FFB8B8"/>
<path d="M63.6936 13.8241C63.4118 12.6348 63.5412 10.9612 63.7004 9.76374C64.1178 6.62432 65.8579 3.63974 68.5014 1.87187C69.0027 1.49041 69.5983 1.25323 70.2241 1.18592C70.8495 1.15976 71.5274 1.49521 71.7194 2.09216C71.877 1.69817 72.1134 1.34071 72.4142 1.04185C72.715 0.742994 73.0737 0.50907 73.4682 0.354524C74.2607 0.0502904 75.1131 -0.0647635 75.9577 0.0184822C77.5948 0.153691 79.1648 0.730465 80.5011 1.68759C81.8374 2.64472 82.8902 3.9465 83.5477 5.45477C83.8 6.05534 84.5048 3.837 84.8244 4.40445C85.1182 4.99429 85.6307 5.44548 86.2523 5.66149C86.8787 5.83662 87.1331 8.42252 87.3796 7.81954C87.5709 8.26516 87.6465 8.75203 87.5994 9.23481C87.5523 9.7176 87.384 10.1806 87.1103 10.5807C86.8365 10.9807 86.4661 11.3049 86.0337 11.5229C85.6012 11.7409 85.1207 11.8458 84.6369 11.8276C83.9994 11.8037 83.3897 11.5688 82.7598 11.4676C80.507 11.106 78.1173 12.7427 77.6357 14.9772C77.4633 14.331 77.1878 13.717 76.82 13.1588C76.6333 12.8812 76.3831 12.6522 76.0902 12.491C75.7974 12.3298 75.4704 12.241 75.1364 12.2319C74.4954 12.256 73.9321 12.6758 73.5162 13.1651C73.1003 13.6544 72.788 14.2252 72.3691 14.7118C71.1398 16.1397 69.4772 19.4696 67.7254 19.2267C66.343 19.0351 64.0783 15.4479 63.6936 13.8241Z" fill="#2F2E41"/>
<path d="M130.631 55.5661C130.698 55.1346 130.609 54.6935 130.382 54.3212C130.154 53.9489 129.802 53.6693 129.389 53.532L103.95 45.0427C103.706 44.9609 103.448 44.9312 103.192 44.9554L96.8157 45.5596L93.1571 45.9073L86.4057 46.5466C85.998 46.5857 85.6149 46.7592 85.3162 47.04C85.0176 47.3207 84.8204 47.6928 84.7556 48.098L81.3277 69.553C81.2628 69.9715 81.3423 70.3996 81.5531 70.7667C81.7638 71.1338 82.0932 71.4179 82.4868 71.5721L108.191 81.5137C108.312 81.5606 108.437 81.5944 108.565 81.6143C108.751 81.6445 108.941 81.646 109.127 81.6186L125.737 79.152C126.129 79.0952 126.492 78.9133 126.772 78.6334C127.053 78.3535 127.235 77.9905 127.294 77.5982L130.631 55.5661Z" fill="white"/>
<path d="M83.0694 70.0607L108.774 80.0017C108.811 80.0166 108.852 80.0214 108.892 80.0156L125.499 77.5494C125.548 77.5426 125.594 77.5199 125.629 77.4848C125.664 77.4497 125.687 77.404 125.694 77.3547L129.034 55.3224C129.041 55.2686 129.03 55.2138 129.002 55.1674C128.974 55.121 128.93 55.0859 128.879 55.0681L128.708 55.0101L103.438 46.5807C103.427 46.5767 103.415 46.5738 103.403 46.5721C103.383 46.5685 103.363 46.5675 103.343 46.5691L87.7916 48.0436L86.5575 48.1596C86.5069 48.165 86.4594 48.1869 86.4223 48.2219C86.3852 48.2568 86.3606 48.303 86.3521 48.3533L82.9248 69.8075C82.9164 69.8599 82.9262 69.9136 82.9525 69.9596C82.9788 70.0057 83.0201 70.0414 83.0694 70.0607Z" fill="#29B475"/>
<path d="M87.792 48.0436L103.344 46.5691C103.364 46.5675 103.384 46.5685 103.403 46.5721C103.415 46.5738 103.427 46.5767 103.439 46.5807L128.708 55.0101L122.043 55.7171L119.548 55.9805L112.45 56.7319C112.429 56.7329 112.408 56.7327 112.388 56.7311C112.375 56.7273 112.362 56.7235 112.347 56.7194L87.792 48.0436Z" fill="#2F2E41"/>
<path d="M82.4863 71.5736L108.191 81.5147C108.312 81.5613 108.437 81.5943 108.566 81.613C108.752 81.6438 108.941 81.6462 109.128 81.6201L125.736 79.1538C126.127 79.0966 126.491 78.9145 126.771 78.6345C127.052 78.3544 127.235 77.9913 127.294 77.5988L130.631 55.5662C130.68 55.2414 130.643 54.9092 130.523 54.6035C130.506 54.5629 130.489 54.5223 130.469 54.484C130.337 54.2049 130.135 53.9643 129.884 53.7853C129.733 53.6764 129.566 53.5911 129.389 53.5323L129.359 53.5216L103.951 45.0426C103.848 45.0094 103.741 44.9836 103.634 44.9654C103.487 44.9446 103.338 44.9417 103.191 44.9568L96.8157 45.5589L93.1575 45.9085L86.4049 46.5474C86.1286 46.5732 85.8618 46.6615 85.6246 46.8057C85.6063 46.8146 85.5888 46.8251 85.5723 46.8371C85.5605 46.8448 85.5493 46.8533 85.5387 46.8625C85.3315 47.0042 85.1553 47.1866 85.0208 47.3988C84.8863 47.6109 84.7963 47.8482 84.7563 48.0963L81.3262 69.5528C81.2613 69.9716 81.341 70.4001 81.5519 70.7675C81.7628 71.1349 82.0924 71.4192 82.4863 71.5736ZM85.2114 48.1711C85.253 47.9139 85.3669 47.674 85.5396 47.4792C85.5919 47.4166 85.6504 47.3594 85.7143 47.3086C85.8886 47.1673 86.0949 47.071 86.3149 47.0279C86.3584 47.0189 86.4023 47.0127 86.4465 47.0093L97.8161 45.9331L103.235 45.4164C103.272 45.4121 103.306 45.4127 103.34 45.4107C103.422 45.409 103.504 45.4151 103.585 45.429C103.659 45.4386 103.732 45.4561 103.803 45.4811L129.241 53.9708C129.261 53.978 129.278 53.9848 129.298 53.992C129.53 54.0782 129.733 54.2264 129.886 54.4203C130.007 54.5688 130.095 54.7411 130.145 54.9261C130.195 55.1112 130.205 55.3046 130.176 55.494L126.836 77.5289C126.792 77.8228 126.655 78.0947 126.445 78.3047C126.235 78.5146 125.964 78.6514 125.67 78.6948L109.06 81.1608C108.823 81.195 108.58 81.1673 108.357 81.0804L82.6521 71.142C82.3575 71.0256 82.1111 70.8124 81.9533 70.5373C81.7955 70.2622 81.7358 69.9415 81.7838 69.6278L85.2114 48.1711Z" fill="#2A3749"/>
<path d="M85.4836 46.9795C85.4972 46.9405 85.5211 46.9059 85.5529 46.8795C85.5634 46.871 85.5745 46.8634 85.5862 46.8566C85.597 46.8525 85.608 46.8457 85.6188 46.8415C85.6704 46.8207 85.7278 46.8198 85.7801 46.8388L86.3151 47.0279L112.453 56.2663L118.57 55.6187L121.993 55.2569L129.238 54.4884L129.886 54.4203L130.012 54.4063C130.066 54.4014 130.121 54.4156 130.166 54.4465C130.21 54.4774 130.243 54.5231 130.258 54.5756C130.262 54.5877 130.264 54.6001 130.265 54.6127C130.27 54.6625 130.259 54.7128 130.234 54.7559C130.208 54.7989 130.169 54.8325 130.123 54.8514C130.102 54.86 130.081 54.8658 130.059 54.8687L129.177 54.9613L122.042 55.717L119.548 55.9803L112.45 56.7317C112.429 56.7328 112.408 56.7325 112.387 56.731C112.375 56.7272 112.362 56.7234 112.347 56.7193L85.7145 47.3086L85.624 47.2765C85.6033 47.2697 85.5841 47.2591 85.5673 47.2451C85.527 47.2155 85.4972 47.1738 85.4821 47.126C85.4671 47.0783 85.4676 47.0269 85.4836 46.9795Z" fill="#2A3749"/>
<path d="M108.636 81.6802C108.576 81.6705 108.522 81.6375 108.486 81.5882C108.45 81.539 108.435 81.4775 108.444 81.4171L112.196 56.4665C112.206 56.4058 112.238 56.3512 112.288 56.3148C112.337 56.2783 112.399 56.263 112.459 56.2721L112.461 56.2724C112.522 56.2821 112.575 56.3151 112.611 56.3644C112.647 56.4137 112.662 56.4752 112.653 56.5355L108.901 81.4861C108.892 81.5468 108.859 81.6014 108.81 81.6379C108.76 81.6743 108.699 81.6897 108.638 81.6805L108.636 81.6802Z" fill="#2A3749"/>
<path d="M118.148 80.0975L115.652 80.3614L118.571 55.6178C118.571 55.6178 121.904 55.0131 121.993 55.2556C122.048 55.4004 118.171 79.9388 118.148 80.0975Z" fill="#2A3749"/>
<path d="M85.6248 47.2764L85.5576 58.5602L105.494 66.1718L112.653 56.5359L85.6248 47.2764Z" fill="#2A3749"/>
<path d="M129.887 54.4211C129.72 54.2113 129.496 54.0549 129.241 53.9714L103.804 45.4819C103.733 45.4578 103.66 45.4399 103.585 45.4284C103.504 45.4144 103.422 45.4083 103.339 45.41L103.381 45.1517L103.635 44.9669L109.676 40.585L129.848 46.7795L129.883 53.7859L129.887 54.4211Z" fill="#2A3749"/>
<path d="M86.6406 65.3904C86.6693 65.3932 86.6975 65.3991 86.7249 65.4081L94.5296 67.9766C94.6273 68.0087 94.7083 68.0785 94.7547 68.1704C94.8012 68.2624 94.8092 68.369 94.7772 68.4669C94.7451 68.5648 94.6755 68.646 94.5837 68.6925C94.492 68.739 94.3855 68.7471 94.2878 68.7149L86.4831 66.1465C86.3924 66.1166 86.316 66.0544 86.2683 65.9716C86.2206 65.8889 86.205 65.7914 86.2245 65.6978C86.244 65.6043 86.2972 65.5212 86.374 65.4645C86.4507 65.4078 86.5457 65.3814 86.6406 65.3904H86.6406Z" fill="white"/>
<path d="M118.131 112.726C119.844 112.726 121.233 111.334 121.233 109.618C121.233 107.901 119.844 106.51 118.131 106.51C116.418 106.51 115.029 107.901 115.029 109.618C115.029 111.334 116.418 112.726 118.131 112.726Z" fill="#F2F2F2"/>
<path d="M39.033 124.122C40.7462 124.122 42.1349 122.731 42.1349 121.014C42.1349 119.298 40.7462 117.906 39.033 117.906C37.3199 117.906 35.9312 119.298 35.9312 121.014C35.9312 122.731 37.3199 124.122 39.033 124.122Z" fill="#F2F2F2"/>
<path d="M103.655 21.299C105.368 21.299 106.757 19.9075 106.757 18.191C106.757 16.4745 105.368 15.083 103.655 15.083C101.942 15.083 100.553 16.4745 100.553 18.191C100.553 19.9075 101.942 21.299 103.655 21.299Z" fill="#F2F2F2"/>
<path d="M108.745 69.9624C108.343 70.1374 107.907 70.222 107.469 70.2101C107.031 70.1983 106.601 70.0903 106.209 69.8938C105.817 69.6973 105.472 69.4171 105.2 69.0729C104.928 68.7287 104.734 68.3288 104.633 67.9015L94.0317 66.8284L97.5292 62.5273L107.06 64.2058C107.788 64.0828 108.535 64.2316 109.161 64.6239C109.786 65.0162 110.247 65.6248 110.454 66.3343C110.662 67.0439 110.603 67.8052 110.288 68.4738C109.972 69.1425 109.424 69.6722 108.745 69.9624Z" fill="#FFB8B8"/>
<path d="M102.224 68.255L77.4842 65.9711L77.4503 65.932L59.3946 45.2024C58.2063 43.3784 57.759 41.1682 58.144 39.0244C58.5291 36.8806 59.7175 34.9653 61.4659 33.6708C62.4333 32.9564 63.5408 32.4554 64.7154 32.2007C65.89 31.946 67.1051 31.9435 68.2807 32.1933C69.4564 32.4431 70.5659 32.9395 71.5362 33.6499C72.5066 34.3604 73.3158 35.2686 73.9105 36.315L85.0314 55.881L102.496 62.9121L102.224 68.255Z" fill="#E6E6E6"/>
</g>
<defs>
<clipPath id="clip0_36826:22746">
<rect width="175" height="167" fill="white"/>
</clipPath>
</defs>
</svg>
