<svg width="204" height="204" viewBox="0 0 204 204" fill="none" xmlns="http://www.w3.org/2000/svg">
<circle cx="102" cy="102" r="102" fill="#F7FAFC"/>
<path d="M166.798 91.1053V158.657C166.798 158.739 166.792 158.821 166.792 158.909C166.792 158.947 166.786 158.985 166.786 159.029C166.786 159.067 166.779 159.105 166.779 159.143C166.779 159.155 166.773 159.174 166.773 159.187C166.767 159.212 166.767 159.237 166.76 159.262C166.754 159.319 166.748 159.382 166.735 159.439C166.729 159.496 166.716 159.553 166.704 159.609C166.697 159.635 166.691 159.666 166.685 159.691C166.685 159.71 166.678 159.736 166.672 159.754C166.666 159.78 166.66 159.811 166.653 159.836C166.641 159.887 166.628 159.937 166.616 159.988C166.616 159.994 166.609 160.007 166.609 160.013C166.584 160.101 166.559 160.183 166.527 160.265C166.527 160.272 166.527 160.272 166.521 160.278C166.508 160.322 166.49 160.366 166.477 160.404C166.464 160.442 166.445 160.48 166.433 160.511C166.427 160.524 166.42 160.537 166.42 160.543C166.376 160.65 166.326 160.757 166.269 160.858C166.257 160.89 166.231 160.928 166.212 160.966C166.194 161.003 166.175 161.035 166.156 161.066C166.137 161.098 166.118 161.136 166.099 161.167C166.061 161.237 166.017 161.3 165.973 161.363C165.948 161.407 165.917 161.439 165.898 161.483C165.828 161.571 165.772 161.653 165.696 161.735C165.646 161.798 165.595 161.855 165.545 161.912C165.495 161.969 165.438 162.025 165.388 162.082C165.362 162.107 165.337 162.133 165.312 162.158C165.287 162.183 165.268 162.202 165.236 162.227C165.211 162.252 165.18 162.284 165.148 162.309C165.142 162.315 165.129 162.322 165.123 162.334C165.047 162.404 164.972 162.461 164.89 162.524C164.884 162.53 164.877 162.536 164.865 162.543C164.802 162.587 164.739 162.631 164.676 162.675C164.651 162.688 164.632 162.707 164.613 162.719C164.575 162.744 164.544 162.763 164.506 162.789C164.481 162.807 164.449 162.826 164.418 162.839C164.386 162.858 164.355 162.877 164.323 162.896C164.103 163.022 163.876 163.129 163.637 163.211C163.624 163.217 163.612 163.224 163.593 163.224C163.58 163.23 163.555 163.236 163.542 163.236C163.486 163.255 163.435 163.274 163.372 163.293C163.272 163.325 163.177 163.35 163.076 163.369C163.026 163.381 162.976 163.394 162.925 163.407C162.894 163.413 162.856 163.419 162.825 163.419C162.787 163.426 162.743 163.432 162.705 163.445C162.699 163.445 162.692 163.445 162.692 163.451C162.661 163.457 162.629 163.457 162.592 163.464C162.579 163.464 162.56 163.47 162.547 163.47C162.522 163.476 162.491 163.476 162.459 163.482C162.447 163.482 162.428 163.489 162.409 163.489C162.352 163.495 162.289 163.495 162.226 163.501C162.138 163.508 162.056 163.508 161.968 163.508H42.83C42.7418 163.508 42.66 163.501 42.5718 163.501C42.5151 163.495 42.4522 163.495 42.3892 163.489C42.3199 163.482 42.257 163.476 42.1877 163.464C42.1499 163.457 42.1121 163.457 42.0743 163.451C41.9799 163.438 41.8854 163.419 41.7973 163.4C41.7721 163.394 41.7469 163.388 41.7217 163.381C41.6209 163.356 41.5265 163.337 41.4257 163.306C41.369 163.287 41.3124 163.268 41.2557 163.249C40.9912 163.161 40.7393 163.047 40.5 162.915C40.4433 162.877 40.3804 162.845 40.3237 162.807C40.2544 162.77 40.1915 162.725 40.1285 162.681C39.7443 162.416 39.398 162.107 39.102 161.748C39.0328 161.666 38.9635 161.577 38.9005 161.489C38.6864 161.193 38.5038 160.871 38.3652 160.524C38.3338 160.448 38.3023 160.36 38.2708 160.278C38.2393 160.196 38.2141 160.108 38.1889 160.026C38.1637 159.937 38.1448 159.855 38.1196 159.767C38.1008 159.685 38.0819 159.609 38.0693 159.527C38.063 159.515 38.063 159.502 38.063 159.49C38.0504 159.414 38.0378 159.332 38.0315 159.25C38.0252 159.243 38.0252 159.237 38.0252 159.231C38.0189 159.168 38.0126 159.111 38.0126 159.048C38 158.928 38 158.808 38 158.682V91.1053C38 90.525 38.1008 89.9699 38.2897 89.4526C38.5856 88.6326 39.0957 87.9198 39.7569 87.3773C39.7632 87.371 39.7758 87.3647 39.7884 87.3521L40.0403 87.1629C40.8275 86.6014 41.7847 86.2734 42.8237 86.2734H161.962C162.081 86.2734 162.195 86.2797 162.308 86.2861C162.327 86.2797 162.352 86.2861 162.371 86.2924C162.478 86.2987 162.592 86.3113 162.699 86.3302C162.724 86.3365 162.749 86.3365 162.774 86.3428C162.869 86.3554 162.963 86.3807 163.051 86.3996C163.076 86.4059 163.095 86.4059 163.121 86.4122C163.234 86.4374 163.341 86.469 163.454 86.5068C163.555 86.5384 163.662 86.5762 163.757 86.6141C163.895 86.6708 164.034 86.7339 164.166 86.8033C164.241 86.8412 164.317 86.879 164.386 86.9232C164.512 86.9925 164.632 87.0745 164.745 87.1565C164.752 87.1502 164.752 87.1565 164.752 87.1565L165.003 87.3458C165.016 87.3521 165.029 87.3584 165.035 87.371C165.104 87.4215 165.161 87.4783 165.218 87.5287C165.262 87.5666 165.306 87.6107 165.35 87.6549C165.482 87.781 165.608 87.9198 165.728 88.0712C165.784 88.1406 165.835 88.2037 165.879 88.273C166.08 88.5506 166.257 88.8534 166.389 89.1751C166.427 89.2634 166.464 89.3517 166.496 89.44C166.496 89.4463 166.502 89.4463 166.502 89.4526C166.559 89.5977 166.603 89.7491 166.641 89.8942C166.66 89.9699 166.678 90.0393 166.691 90.115C166.704 90.1717 166.716 90.2285 166.723 90.2853C166.735 90.342 166.741 90.4051 166.748 90.4619C166.76 90.5313 166.767 90.6007 166.773 90.6701C166.779 90.7268 166.786 90.7899 166.786 90.853C166.792 90.935 166.798 91.0233 166.798 91.1053Z" fill="#DFE5EA"/>
<path d="M166.509 89.4528H38.2964C38.5924 88.6328 39.1024 87.92 39.7637 87.3775C39.77 87.3712 39.7825 87.3649 39.7951 87.3523L40.047 87.163L99.4492 41.9982C101.194 40.6673 103.612 40.6673 105.362 41.9982L164.758 87.163C164.765 87.1567 164.765 87.163 164.765 87.163L165.016 87.3523C165.029 87.3586 165.042 87.3649 165.048 87.3775C165.117 87.4279 165.174 87.4847 165.231 87.5352C165.275 87.573 165.319 87.6172 165.363 87.6613C165.495 87.7875 165.621 87.9263 165.741 88.0777C165.797 88.147 165.848 88.2101 165.892 88.2795C166.093 88.5571 166.27 88.8598 166.402 89.1815C166.44 89.2699 166.477 89.3582 166.509 89.4465C166.503 89.4465 166.509 89.4465 166.509 89.4528Z" fill="#8AD1A4"/>
<path d="M157.548 159.969H45.6641V58.279C45.6641 53.5039 49.5306 49.6309 54.2976 49.6309H148.908C153.675 49.6309 157.541 53.5039 157.541 58.279V159.969H157.548Z" fill="white"/>
<path d="M142.711 74.0426H60.4998C59.3474 74.0426 58.4028 73.0965 58.4028 71.9421V71.0527C58.4028 69.8983 59.3474 68.9521 60.4998 68.9521H142.711C143.863 68.9521 144.808 69.8983 144.808 71.0527V71.9421C144.808 73.0965 143.863 74.0426 142.711 74.0426Z" fill="#E4ECF9"/>
<path d="M142.711 84.9108H60.4998C59.3474 84.9108 58.4028 83.9646 58.4028 82.8103V81.9209C58.4028 80.7665 59.3474 79.8203 60.4998 79.8203H142.711C143.863 79.8203 144.808 80.7665 144.808 81.9209V82.8103C144.808 83.9646 143.863 84.9108 142.711 84.9108Z" fill="#E4ECF9"/>
<path d="M142.711 95.779H60.4998C59.3474 95.779 58.4028 94.8328 58.4028 93.6784V92.789C58.4028 91.6347 59.3474 90.6885 60.4998 90.6885H142.711C143.863 90.6885 144.808 91.6347 144.808 92.789V93.6784C144.808 94.8328 143.863 95.779 142.711 95.779Z" fill="#E4ECF9"/>
<path d="M142.711 106.648H60.4998C59.3474 106.648 58.4028 105.702 58.4028 104.548V103.658C58.4028 102.504 59.3474 101.558 60.4998 101.558H142.711C143.863 101.558 144.808 102.504 144.808 103.658V104.548C144.808 105.702 143.863 106.648 142.711 106.648Z" fill="#E4ECF9"/>
<path d="M142.711 117.516H60.4998C59.3474 117.516 58.4028 116.57 58.4028 115.416V114.526C58.4028 113.372 59.3474 112.426 60.4998 112.426H142.711C143.863 112.426 144.808 113.372 144.808 114.526V115.416C144.808 116.57 143.863 117.516 142.711 117.516Z" fill="#E4ECF9"/>
<path d="M102.402 126.688C102.213 126.896 101.992 127.086 101.741 127.237L43.1004 163.482H42.8359C42.3447 163.482 41.8787 163.413 41.4379 163.274C41.3749 163.255 41.3119 163.236 41.2553 163.218C40.487 162.953 39.8006 162.492 39.2653 161.899C39.2149 161.842 39.1646 161.786 39.1142 161.723C38.963 161.546 38.8308 161.357 38.7112 161.155C38.6671 161.085 38.6356 161.022 38.5915 160.953C38.5537 160.884 38.5159 160.814 38.4845 160.738C38.1822 160.101 38.0059 159.395 38.0059 158.644V91.1053C38.0059 90.525 38.1066 89.9699 38.2955 89.4526C38.5915 88.6326 39.1016 87.9198 39.7628 87.3773C39.7691 87.371 39.7817 87.3647 39.7943 87.3521L40.0462 87.1629C40.8333 86.6014 41.7905 86.2734 42.8296 86.2734H43.9316L49.0828 89.4526L96.5453 118.791L98.3337 119.895L101.741 122.002C101.992 122.159 102.219 122.348 102.402 122.55V122.557C103.46 123.711 103.46 125.534 102.402 126.688Z" fill="#57A67E"/>
<path d="M166.798 91.1049V158.657C166.798 158.739 166.791 158.821 166.791 158.909C166.791 158.947 166.785 158.985 166.785 159.029C166.785 159.067 166.779 159.104 166.779 159.142C166.779 159.155 166.772 159.174 166.772 159.186C166.766 159.212 166.766 159.237 166.76 159.262C166.754 159.319 166.747 159.382 166.735 159.439C166.728 159.495 166.716 159.552 166.703 159.609C166.703 159.615 166.697 159.628 166.697 159.634C166.691 159.647 166.691 159.672 166.684 159.691C166.684 159.71 166.678 159.735 166.672 159.754C166.665 159.779 166.659 159.811 166.653 159.836C166.64 159.887 166.628 159.937 166.615 159.987C166.615 159.994 166.609 160.006 166.609 160.013C166.583 160.101 166.558 160.183 166.527 160.265C166.527 160.271 166.527 160.271 166.521 160.278C166.508 160.322 166.495 160.36 166.476 160.404C166.464 160.442 166.451 160.473 166.432 160.511C166.426 160.517 166.426 160.53 166.42 160.543C166.376 160.65 166.325 160.757 166.269 160.858C166.256 160.89 166.231 160.927 166.212 160.965C166.193 161.003 166.174 161.035 166.155 161.066C166.136 161.098 166.118 161.136 166.099 161.167C166.061 161.236 166.017 161.3 165.973 161.363C165.947 161.407 165.916 161.438 165.897 161.482C165.828 161.571 165.765 161.653 165.696 161.735C165.645 161.798 165.595 161.855 165.544 161.911C165.494 161.968 165.437 162.025 165.387 162.082C165.362 162.107 165.337 162.132 165.311 162.157C165.286 162.183 165.267 162.202 165.236 162.227C165.211 162.252 165.179 162.284 165.148 162.309C165.141 162.315 165.129 162.321 165.123 162.334C165.047 162.403 164.971 162.46 164.89 162.523C164.883 162.53 164.877 162.536 164.864 162.542C164.801 162.586 164.738 162.631 164.675 162.675C164.65 162.687 164.631 162.706 164.612 162.719C164.575 162.744 164.543 162.763 164.505 162.788C164.48 162.807 164.449 162.826 164.417 162.839C164.386 162.858 164.354 162.877 164.323 162.895C164.102 163.022 163.876 163.129 163.636 163.211C163.624 163.217 163.605 163.223 163.592 163.223C163.58 163.23 163.555 163.236 163.542 163.236C163.485 163.255 163.435 163.274 163.372 163.293C163.271 163.324 163.177 163.35 163.076 163.369C163.026 163.381 162.975 163.394 162.925 163.406C162.893 163.413 162.856 163.419 162.824 163.419C162.786 163.425 162.742 163.432 162.704 163.444H162.692C162.654 163.451 162.623 163.457 162.591 163.457C162.578 163.457 162.56 163.463 162.547 163.463C162.522 163.469 162.49 163.469 162.459 163.476C162.446 163.476 162.427 163.482 162.408 163.482C162.352 163.488 162.289 163.488 162.226 163.495C162.138 163.501 162.056 163.501 161.968 163.501H161.703L103.063 127.256C102.811 127.098 102.584 126.909 102.402 126.707V126.701C101.337 125.54 101.337 123.729 102.402 122.563V122.556C102.584 122.354 102.811 122.165 103.063 122.007L106.463 119.901L108.252 118.797L155.721 89.4585L160.872 86.2793H161.974C162.094 86.2793 162.207 86.2856 162.32 86.2919C162.339 86.2856 162.364 86.2919 162.383 86.2982C162.49 86.3045 162.604 86.3171 162.711 86.3361C162.736 86.3424 162.761 86.3424 162.786 86.3487C162.881 86.3613 162.975 86.3865 163.063 86.4055C163.089 86.4118 163.107 86.4118 163.133 86.4181C163.246 86.4433 163.353 86.4748 163.466 86.5127C163.567 86.5442 163.674 86.5821 163.769 86.6199C163.907 86.6767 164.046 86.7398 164.178 86.8092C164.254 86.847 164.329 86.8849 164.398 86.929C164.524 86.9984 164.644 87.0804 164.757 87.1624C164.764 87.1561 164.764 87.1624 164.764 87.1624L165.015 87.3516C165.028 87.358 165.041 87.3643 165.047 87.3769C165.116 87.4273 165.173 87.4841 165.23 87.5346C165.274 87.5724 165.318 87.6166 165.362 87.6607C165.494 87.7869 165.62 87.9257 165.74 88.0771C165.796 88.1464 165.847 88.2095 165.891 88.2789C166.092 88.5565 166.269 88.8592 166.401 89.1809C166.439 89.2693 166.476 89.3576 166.508 89.4459C166.508 89.4522 166.514 89.4522 166.514 89.4585C166.571 89.6036 166.615 89.755 166.653 89.9001C166.672 89.9757 166.691 90.0451 166.703 90.1208C166.716 90.1776 166.728 90.2344 166.735 90.2911C166.747 90.3479 166.754 90.411 166.76 90.4678C166.772 90.5372 166.779 90.6065 166.785 90.6759C166.791 90.7327 166.798 90.7958 166.798 90.8589C166.791 90.9345 166.798 91.0229 166.798 91.1049Z" fill="#57A67E"/>
<path opacity="0.29" d="M166.798 157.736V158.436C166.798 161.224 164.638 163.483 161.974 163.483H42.8296C40.1658 163.483 38.0059 161.224 38.0059 158.436V157.736L99.2846 117.353C101.186 116.097 103.611 116.097 105.513 117.353L166.798 157.736Z" fill="#474747"/>
<path d="M166.798 157.982V158.657C166.798 161.326 164.638 163.489 161.974 163.489H42.8296C40.1658 163.489 38.0059 161.326 38.0059 158.657V157.982L99.2846 119.29C101.186 118.091 103.611 118.091 105.513 119.29L166.798 157.982Z" fill="#8AD1A4"/>
<path d="M96.3565 63.1735H60.4998C59.3474 63.1735 58.4028 62.2273 58.4028 61.073V60.1836C58.4028 59.0292 59.3474 58.083 60.4998 58.083H96.3565C97.5089 58.083 98.4535 59.0292 98.4535 60.1836V61.073C98.4472 62.2336 97.5026 63.1735 96.3565 63.1735Z" fill="#78E8A1"/>
</svg>
