<svg width="36" height="36" viewBox="0 0 36 36" fill="none" xmlns="http://www.w3.org/2000/svg">
<circle cx="18" cy="18" r="18" fill="#8AD1A4"/>
<path d="M13.8334 14.6667C13.8334 12.3655 15.6989 10.5 18 10.5C20.3012 10.5 22.1667 12.3655 22.1667 14.6667C22.1667 16.9679 20.3012 18.8333 18 18.8333C15.6989 18.8333 13.8334 16.9679 13.8334 14.6667ZM18 17.1667C19.3808 17.1667 20.5 16.0474 20.5 14.6667C20.5 13.286 19.3808 12.1667 18 12.1667C16.6193 12.1667 15.5 13.286 15.5 14.6667C15.5 16.0474 16.6193 17.1667 18 17.1667Z" fill="white"/>
<path d="M13.286 21.6193C12.0358 22.8695 11.3334 24.5652 11.3334 26.3333H13C13 25.0073 13.5268 23.7355 14.4645 22.7978C15.4022 21.8601 16.674 21.3333 18 21.3333C19.3261 21.3333 20.5979 21.8601 21.5356 22.7978C22.4733 23.7355 23 25.0073 23 26.3333H24.6667C24.6667 24.5652 23.9643 22.8695 22.7141 21.6193C21.4638 20.369 19.7681 19.6667 18 19.6667C16.2319 19.6667 14.5362 20.369 13.286 21.6193Z" fill="white"/>
</svg>
